<?xml version="1.0" standalone="no"?><!DOCTYPE svg PUBLIC "-//W3C//DTD SVG 1.1//EN" "http://www.w3.org/Graphics/SVG/1.1/DTD/svg11.dtd"><svg width="100%" height="100%" viewBox="0 0 308 289" version="1.1" xmlns="http://www.w3.org/2000/svg" xmlns:xlink="http://www.w3.org/1999/xlink" xml:space="preserve" style="fill-rule:evenodd;clip-rule:evenodd;stroke-linejoin:round;stroke-miterlimit:1.41421;"><path d="M51.283,18.845c236.057,-9.422 304.609,90.53 199.824,190.342c-104.784,99.812 -136.567,59.455 -198.985,0c-62.417,-59.455 10.592,-194.033 0,-183.944" style="fill:#5d253b;"/><path d="M198.642,275.082c-191.496,-5.52 -240.443,-98.568 -149.233,-181.276c91.21,-82.709 114.292,-44.898 160.907,11.726c46.614,56.623 -21.157,172.163 -11.938,163.803" style="fill:#512436;"/><path d="M243.432,66.489c6.562,144.195 -63.097,186.068 -132.655,122.058c-69.558,-64.01 -41.433,-83.424 0.004,-121.55c41.436,-38.126 135.223,6.475 128.192,0.004" style="fill:#42222f;"/><text x="41px" y="178.252px" style="font-family:DIN Alternate;font-size:123.853px;font-weight:700;fill:#72e9ff;">y<tspan x="90.024px 145.25px 202.579px " y="178.252px 178.252px 178.252px ">ada</tspan></text><text x="51px" y="175.122px" style="font-family:DIN Alternate;font-size:112.074px;font-weight:700;fill:#d6d3c3;">y<tspan x="99.185px 153.467px 209.815px " y="175.122px 175.122px 175.122px ">ada</tspan></text></svg>